<svg width="297" height="65" viewBox="0 0 297 65" fill="none" xmlns="http://www.w3.org/2000/svg">
<path d="M73.505 32.95C73.505 29.9973 74.1643 27.36 75.483 25.038C76.8303 22.6873 78.6507 20.867 80.944 19.577C83.266 18.2583 85.8603 17.599 88.727 17.599C92.081 17.599 95.0193 18.459 97.542 20.179C100.065 21.899 101.828 24.2783 102.831 27.317H95.908C95.22 25.8837 94.2453 24.8087 92.984 24.092C91.7513 23.3753 90.318 23.017 88.684 23.017C86.9353 23.017 85.373 23.4327 83.997 24.264C82.6497 25.0667 81.589 26.2133 80.815 27.704C80.0697 29.1947 79.697 30.9433 79.697 32.95C79.697 34.928 80.0697 36.6767 80.815 38.196C81.589 39.6867 82.6497 40.8477 83.997 41.679C85.373 42.4817 86.9353 42.883 88.684 42.883C90.318 42.883 91.7513 42.5247 92.984 41.808C94.2453 41.0627 95.22 39.9733 95.908 38.54H102.831C101.828 41.6073 100.065 44.001 97.542 45.721C95.048 47.4123 92.1097 48.258 88.727 48.258C85.8603 48.258 83.266 47.613 80.944 46.323C78.6507 45.0043 76.8303 43.184 75.483 40.862C74.1643 38.54 73.505 35.9027 73.505 32.95ZM126.377 42.281H114.423L112.445 48H106.124L116.917 17.943H123.926L134.719 48H128.355L126.377 42.281ZM124.743 37.465L120.4 24.909L116.057 37.465H124.743ZM154.233 48L147.611 36.304H144.773V48H138.753V17.986H150.019C152.341 17.986 154.319 18.4017 155.953 19.233C157.587 20.0357 158.805 21.1393 159.608 22.544C160.439 23.92 160.855 25.468 160.855 27.188C160.855 29.166 160.282 30.9577 159.135 32.563C157.988 34.1397 156.283 35.229 154.018 35.831L161.199 48H154.233ZM144.773 31.789H149.804C151.438 31.789 152.656 31.402 153.459 30.628C154.262 29.8253 154.663 28.7217 154.663 27.317C154.663 25.941 154.262 24.8803 153.459 24.135C152.656 23.361 151.438 22.974 149.804 22.974H144.773V31.789ZM176.792 17.986C179.945 17.986 182.712 18.6023 185.091 19.835C187.499 21.0677 189.348 22.8307 190.638 25.124C191.957 27.3887 192.616 30.026 192.616 33.036C192.616 36.046 191.957 38.6833 190.638 40.948C189.348 43.184 187.499 44.9183 185.091 46.151C182.712 47.3837 179.945 48 176.792 48H166.3V17.986H176.792ZM176.577 42.883C179.73 42.883 182.167 42.023 183.887 40.303C185.607 38.583 186.467 36.1607 186.467 33.036C186.467 29.9113 185.607 27.4747 183.887 25.726C182.167 23.9487 179.73 23.06 176.577 23.06H172.32V42.883H176.577ZM215.526 42.281H203.572L201.594 48H195.273L206.066 17.943H213.075L223.868 48H217.504L215.526 42.281ZM213.892 37.465L209.549 24.909L205.206 37.465H213.892ZM214.236 11.751L204.346 16.266V11.966L214.236 6.849V11.751ZM249.79 27.274C249.79 28.8793 249.403 30.3843 248.629 31.789C247.883 33.1937 246.694 34.326 245.06 35.186C243.454 36.046 241.419 36.476 238.954 36.476H233.923V48H227.903V17.986H238.954C241.276 17.986 243.254 18.3873 244.888 19.19C246.522 19.9927 247.74 21.0963 248.543 22.501C249.374 23.9057 249.79 25.4967 249.79 27.274ZM238.696 31.617C240.358 31.617 241.591 31.2443 242.394 30.499C243.196 29.725 243.598 28.65 243.598 27.274C243.598 24.35 241.964 22.888 238.696 22.888H233.923V31.617H238.696ZM260.084 17.986V48H254.064V17.986H260.084ZM279.963 48.301C277.154 48.301 274.574 47.6417 272.223 46.323C269.873 45.0043 268.009 43.184 266.633 40.862C265.257 38.5113 264.569 35.8597 264.569 32.907C264.569 29.983 265.257 27.36 266.633 25.038C268.009 22.6873 269.873 20.8527 272.223 19.534C274.574 18.2153 277.154 17.556 279.963 17.556C282.801 17.556 285.381 18.2153 287.703 19.534C290.054 20.8527 291.903 22.6873 293.25 25.038C294.626 27.36 295.314 29.983 295.314 32.907C295.314 35.8597 294.626 38.5113 293.25 40.862C291.903 43.184 290.054 45.0043 287.703 46.323C285.353 47.6417 282.773 48.301 279.963 48.301ZM279.963 42.926C281.769 42.926 283.36 42.5247 284.736 41.722C286.112 40.8907 287.187 39.7153 287.961 38.196C288.735 36.6767 289.122 34.9137 289.122 32.907C289.122 30.9003 288.735 29.1517 287.961 27.661C287.187 26.1417 286.112 24.9807 284.736 24.178C283.36 23.3753 281.769 22.974 279.963 22.974C278.157 22.974 276.552 23.3753 275.147 24.178C273.771 24.9807 272.696 26.1417 271.922 27.661C271.148 29.1517 270.761 30.9003 270.761 32.907C270.761 34.9137 271.148 36.6767 271.922 38.196C272.696 39.7153 273.771 40.8907 275.147 41.722C276.552 42.5247 278.157 42.926 279.963 42.926Z" fill="#F07807"/>
<path d="M24 9C14.4694 9 5.92659 12.696 0 18.6L24 57L48 18.6C42.1001 12.72 33.5306 9 24 9ZM10.6518 21C10.6518 18.36 13.0545 16.2 15.9911 16.2C18.9277 16.2 21.3304 18.36 21.3304 21C21.3304 23.64 18.9277 25.8 15.9911 25.8C13.0545 25.8 10.6518 23.64 10.6518 21ZM24 40.2C21.0634 40.2 18.6607 38.04 18.6607 35.4C18.6607 32.76 21.0634 30.6 24 30.6C26.9366 30.6 29.3393 32.76 29.3393 35.4C29.3393 38.04 26.9366 40.2 24 40.2Z" fill="#F07807"/>
</svg>
